# xmcd
#
# Track frame offsets: 
#        150
#        24060
#        43935
#        54787
#        70447
#        91247
#        104930
#        118352
#
# Disc length: 1894 seconds
#
# Revision: 2
# Processed by: cddbd v1.5.2PL0 Copyright (c) Steve Scherf et al.
# Submitted via: ExactAudioCopyFreeDBPlugin 1.0
#
DISCID=6d076408
DTITLE=Larry Coryell - Basics
DYEAR=1900
DGENRE=Blues
TTITLE0=Call to the Higher Consciousness
TTITLE1=Slow Blues
TTITLE2=Friday Night
TTITLE3=Half a Heart
TTITLE4=Sex
TTITLE5=Tyrone
TTITLE6=The Jam with Albert
TTITLE7=Organ Blues
EXTD=ID3G:   0
EXTT0=
EXTT1=
EXTT2=
EXTT3=
EXTT4=
EXTT5=
EXTT6=
EXTT7=
PLAYORDER=
